<svg width="114" height="22" viewBox="0 0 114 22" fill="none" xmlns="http://www.w3.org/2000/svg">
<rect x="0.000610352" y="9.87256" width="32" height="1.54334" rx="0.771672" fill="#E3B873"/>
<rect x="82.0006" y="9.87256" width="32" height="1.54334" rx="0.771672" fill="#E3B873"/>
<path d="M62.4261 5.43274L57.5806 3.97899C57.2169 3.87047 56.843 3.83226 56.4726 3.84579V3.83332H50.5833L40.1396 0.362793L40.1712 15.0377L43.1692 16.5363L44.9443 12.1968L47.5373 13.2343L48.2097 11.5539L49.1835 12.5277L48.275 13.4364C47.9592 13.7522 47.7783 14.1889 47.7783 14.6357C47.7783 15.5501 48.5074 16.2935 49.4143 16.3256C49.4459 17.2118 50.1583 17.9243 51.0445 17.9558C51.0761 18.842 51.7885 19.5544 52.6747 19.586C52.7073 20.4929 53.4502 21.222 54.3648 21.222C54.8114 21.222 55.2484 21.0411 55.5639 20.7253L56.4726 19.8169L56.8377 20.182C57.1535 20.4977 57.5902 20.6787 58.037 20.6787C58.9516 20.6787 59.6948 19.9495 59.7269 19.0426C60.6131 19.011 61.3255 18.2986 61.3571 17.4124C62.2433 17.3809 62.9557 16.6684 62.9873 15.7822C63.8942 15.7496 64.6236 15.0067 64.6236 14.0923C64.6236 14.0151 64.6111 13.939 64.6008 13.8623L65.3806 13.0825L66.0107 14.3433L69.424 12.6365L71.4866 16.5745L73.8613 14.9921V0.947317L62.4261 5.43274ZM42.6062 15.0398L41.257 14.3651L41.2296 1.87014L47.1842 3.84924L42.6062 15.0398ZM46.9321 11.8214L45.3553 11.1909L48.2179 4.19258L49.7757 4.71051L46.9321 11.8214ZM48.8651 14.6357C48.8651 14.4752 48.9295 14.3184 49.0431 14.2046L49.9985 13.2494C50.1121 13.1358 50.2692 13.0711 50.4294 13.0711C50.7654 13.0711 51.0386 13.3446 51.0386 13.6803C51.0386 13.8405 50.9739 13.9976 50.8603 14.1112L49.9052 15.0666C49.7916 15.1802 49.6345 15.2447 49.4743 15.2447C49.1383 15.2447 48.8651 14.9714 48.8651 14.6357ZM50.4952 16.2659C50.4952 16.1054 50.5597 15.9486 50.6733 15.8348L51.6287 14.8796C51.7423 14.766 51.8994 14.7013 52.0596 14.7013C52.3955 14.7013 52.6688 14.9748 52.6688 15.3105C52.6688 15.4707 52.6041 15.6278 52.4905 15.7414L51.5353 16.6968C51.4218 16.8104 51.2647 16.8749 51.1044 16.8749C50.7685 16.8749 50.4952 16.6016 50.4952 16.2659ZM52.1254 17.8961C52.1254 17.7356 52.1899 17.5788 52.3035 17.465L53.2589 16.5098C53.3725 16.3962 53.5296 16.3315 53.6898 16.3315C54.0257 16.3315 54.299 16.605 54.299 16.9407C54.299 17.1009 54.2343 17.258 54.1207 17.3716L53.1655 18.327C53.052 18.4406 52.8949 18.5051 52.7346 18.5051C52.3987 18.5051 52.1254 18.2318 52.1254 17.8961ZM55.7509 19.0018L54.7957 19.9572C54.6822 20.0708 54.5251 20.1353 54.3648 20.1353C54.0289 20.1353 53.7556 19.862 53.7556 19.5263C53.7556 19.3658 53.8201 19.209 53.9337 19.0952L54.8891 18.14C55.0027 18.0264 55.1598 17.9617 55.32 17.9617C55.6559 17.9617 55.9292 18.2352 55.9292 18.5709C55.9292 18.7311 55.8645 18.8882 55.7509 19.0018ZM62.9276 14.7013C62.7673 14.7013 62.6103 14.6368 62.4967 14.5232L57.9436 9.9699L57.1752 10.7383L61.7283 15.2914C61.8419 15.4052 61.9066 15.562 61.9066 15.7225C61.9066 16.0582 61.6333 16.3315 61.2974 16.3315C61.1371 16.3315 60.9801 16.267 60.8665 16.1534L56.3134 11.6001L55.545 12.3685L60.0981 16.9216C60.2117 17.0354 60.2764 17.1922 60.2764 17.3527C60.2764 17.6884 60.0031 17.9617 59.6672 17.9617C59.5069 17.9617 59.3499 17.8972 59.2363 17.7836L54.6832 13.2303L53.9148 13.9987L58.4679 18.5518C58.5815 18.6656 58.6462 18.8224 58.6462 18.9829C58.6462 19.3186 58.3729 19.5919 58.037 19.5919C57.8768 19.5919 57.7197 19.5274 57.6061 19.4138L56.9932 18.8006C57.0041 18.7248 57.016 18.6486 57.016 18.5709C57.016 17.6563 56.2866 16.9131 55.3797 16.881C55.3482 15.9948 54.6357 15.2824 53.7495 15.2508C53.718 14.3646 53.0055 13.6522 52.1193 13.6206C52.0867 12.7137 51.344 11.9843 50.4294 11.9843C50.3522 11.9843 50.2761 11.9968 50.1997 12.0071L48.6483 10.4557L50.863 4.92012H54.074L52.0787 6.91567C51.758 7.23566 51.582 7.66178 51.582 8.11497C51.582 9.04999 52.3427 9.8107 53.278 9.8107C53.7246 9.8107 54.1616 9.62974 54.4771 9.314L55.9168 7.87405C56.2113 7.58059 56.73 7.56918 57.0367 7.85017L58.3071 9.0147C58.7293 9.40156 59.1984 9.7234 59.7004 9.97547L63.3585 13.6612C63.4721 13.775 63.5368 13.9318 63.5368 14.0923C63.5368 14.428 63.2635 14.7013 62.9276 14.7013ZM64.0802 12.8461L61.8466 10.5955C62.0462 10.6144 62.2473 10.6258 62.45 10.6258V9.539C61.1849 9.539 59.9742 9.06804 59.0418 8.21314L57.7712 7.04913C57.054 6.39058 55.8374 6.41685 55.1489 7.10618L53.7095 8.54586C53.5954 8.6589 53.4383 8.7239 53.278 8.7239C52.9421 8.7239 52.6688 8.45061 52.6688 8.11497C52.6688 7.95179 52.7317 7.79922 52.8469 7.6838L54.9183 5.61263C55.527 5.00396 56.441 4.77233 57.2681 5.02015L62.0685 6.4601L64.8674 12.0588L64.0802 12.8461ZM66.4966 12.8854L63.2019 6.29559L65.6082 5.35154L68.9196 11.6736L66.4966 12.8854ZM72.7746 14.4107L71.8886 15.0014L66.626 4.95275L72.7746 2.54116V14.4107Z" fill="#E3B873"/>
</svg>
